#!OML:ASF X:\für Bonn\!DataBase\2005_08_11_Bastian_Final\c3d\Bastian.ASF
:FULLY-SPECIFIED
:DEGREES
111
root -1.8405 16.9077 -16.5251 124.801 4.3652 -188.199
lowerback 48.1091 3.35647 -9.25423
upperback 16.5129 11.6772 -10.3004
thorax 0.0282752 11.394 -10.8096
lowerneck -2.93481 -9.63038 -17.2178
upperneck 1.81261 -13.8296 23.0406
head 3.96228 -6.89357 9.21251
rclavicle 2.14687e-014 -6.67916e-014
rhumerus -11.5162 32.5928 -78.5234
rradius 123.78
rwrist 2.7328
rhand -19.2536 16.0068
rfingers 7.12502
rthumb 7.06036 -13.8555
lclavicle 2.14687e-014 -6.67916e-014
lhumerus 22.0969 -41.897 68.1756
lradius 117.334
lwrist 27.8338
lhand -9.5071 -15.3591
lfingers 7.12502
lthumb 16.4582 13.9628
rfemur 42.4953 5.7175 23.3029
rtibia 25.7381
rfoot -185.39 -180.611
rtoes 5.69112
lfemur -75.0464 4.47603 1.94893
ltibia 36.2037
lfoot -10.8033 8.16494
ltoes -35.4332
112
root -1.84034 16.9058 -16.5625 124.475 4.95576 -188.13
lowerback 48.2335 3.40714 -9.26736
upperback 16.5378 11.7182 -10.3384
thorax 0.0537624 11.4226 -10.867
lowerneck -2.23202 -9.38457 -17.7676
upperneck 1.61699 -13.5586 23.3786
head 3.79486 -6.80706 9.49471
rclavicle -7.15625e-015 -1.65389e-013
rhumerus -13.051 32.588 -78.8427
rradius 122.936
rwrist 2.87426
rhand -19.061 15.3839
rfingers 7.12502
rthumb 7.24625 -14.472
lclavicle -7.15625e-015 -1.65389e-013
lhumerus 21.7579 -41.7616 68.4591
lradius 117.137
lwrist 27.6836
lhand -9.61475 -14.9692
lfingers 7.12502
lthumb 16.3546 14.3613
rfemur 42.9809 5.56723 23.4274
rtibia 25.4167
rfoot -185.279 -180.22
rtoes 6.61227
lfemur -75.0551 4.76026 2.99779
ltibia 35.2311
lfoot -13.8085 10.7935
ltoes -29.1049
113
root -1.84277 16.8988 -16.6048 124.195 5.50861 -188.123
lowerback 48.2465 3.46317 -9.3132
upperback 16.5828 11.759 -10.3867
thorax 0.119024 11.4457 -10.9033
lowerneck -1.58045 -9.15463 -18.1276
upperneck 1.37456 -13.301 23.619
head 3.60161 -6.72569 9.70717
rclavicle -5.00937e-014 -6.04305e-014
rhumerus -14.8586 32.4771 -79.2349
rradius 122.172
rwrist 3.42934
rhand -18.7423 14.6501
rfingers 7.12502
rthumb 7.55386 -15.195
lclavicle -5.00937e-014 -6.04305e-014
lhumerus 21.4901 -41.6881 68.7026
lradius 116.91
lwrist 27.6583
lhand -9.81767 -14.4928
lfingers 7.12502
lthumb 16.1592 14.8537
rfemur 43.3077 5.45057 23.4586
rtibia 25.3614
rfoot -185.327 -179.889
rtoes 7.78354
lfemur -75.417 6.30731 1.82622
ltibia 35.0214
lfoot -15.8503 11.1524
ltoes -27.8579
114
root -1.84749 16.8861 -16.6534 123.982 6.00044 -188.12
lowerback 48.1377 3.49519 -9.37901
upperback 16.6572 11.7622 -10.4294
thorax 0.226544 11.4397 -10.8927
lowerneck -0.979254 -8.92845 -18.291
upperneck 1.08012 -13.0355 23.761
head 3.37721 -6.63878 9.84987
rclavicle 7.95139e-015 -3.18055e-015
rhumerus -16.8043 32.2654 -79.7073
rradius 121.386
rwrist 4.42571
rhand -18.3285 13.9883
rfingers 7.12502
rthumb 7.95324 -15.842
lclavicle 7.95139e-015 -3.18055e-015
lhumerus 21.2618 -41.6066 68.9202
lradius 116.705
lwrist 27.7113
lhand -10.0317 -13.9033
lfingers 7.12502
lthumb 15.9531 15.4597
rfemur 43.4743 5.3021 23.4168
rtibia 25.5568
rfoot -185.536 -179.655
rtoes 9.12227
lfemur -75.8955 7.75574 0.543382
ltibia 35.3499
lfoot -16.3751 11.3502
ltoes -24.8831
115
root -1.85527 16.8695 -16.7098 123.803 6.51361 -188.104
lowerback 47.9895 3.5067 -9.37613
upperback 16.713 11.7481 -10.4847
thorax 0.317955 11.4187 -10.922
lowerneck -0.406819 -8.71494 -18.3045
upperneck 0.803083 -12.7916 23.8569
head 3.15275 -6.56145 9.94585
rclavicle -3.97569e-015 6.99722e-014
rhumerus -18.9387 31.8671 -80.4017
rradius 120.536
rwrist 5.76599
rhand -17.7903 13.5525
rfingers 7.12502
rthumb 8.47272 -16.2576
lclavicle -3.97569e-015 6.99722e-014
lhumerus 21.0655 -41.5801 69.0745
lradius 116.476
lwrist 27.9177
lhand -10.2787 -13.2912
lfingers 7.12502
lthumb 15.7152 16.0907
rfemur 43.5351 5.15035 23.3752
rtibia 25.9519
rfoot -185.872 -179.475
rtoes 10.831
lfemur -76.2448 9.12499 -0.775349
ltibia 36.1499
lfoot -15.714 11.1822
ltoes -22.0047
116
root -1.86463 16.8511 -16.77 123.69 7.00137 -188.082
lowerback 47.7542 3.50183 -9.35575
upperback 16.7855 11.7184 -10.5285
thorax 0.43585 11.3816 -10.9289
lowerneck 0.127619 -8.51506 -18.2824
upperneck 0.496052 -12.5569 23.9439
head 2.92536 -6.48758 10.029
rclavicle -9.54166e-015 1.17681e-013
rhumerus -21.1633 31.3232 -81.1089
rradius 119.681
rwrist 7.42129
rhand -17.3085 13.4361
rfingers 7.12502
rthumb 8.93764 -16.3546
lclavicle -9.54166e-015 1.17681e-013
lhumerus 20.9398 -41.5336 69.1762
lradius 116.204
lwrist 28.2153
lhand -10.4941 -12.7978
lfingers 7.12502
lthumb 15.5078 16.6003
rfemur 43.4812 5.00865 23.3464
rtibia 26.4994
rfoot -186.31 -179.401
rtoes 12.5748
lfemur -76.4626 10.4504 -2.15115
ltibia 37.3843
lfoot -13.4756 10.617
ltoes -18.5075
117
root -1.87571 16.8314 -16.8323 123.651 7.48999 -188.052
lowerback 47.41 3.47815 -9.32646
upperback 16.8777 11.6591 -10.561
thorax 0.585082 11.3164 -10.9025
lowerneck 0.550065 -8.32168 -18.2497
upperneck 0.209674 -12.3133 23.9935
head 2.71797 -6.40157 10.0915
rclavicle 6.83819e-014 -5.725e-014
rhumerus -23.3895 30.7908 -81.7626
rradius 118.87
rwrist 9.15733
rhand -16.9867 13.5604
rfingers 7.12502
rthumb 9.24819 -16.2168
lclavicle 6.83819e-014 -5.725e-014
lhumerus 20.8528 -41.4152 69.2394
lradius 115.918
lwrist 28.6668
lhand -10.6081 -12.4272
lfingers 7.12502
lthumb 15.398 16.9793
rfemur 43.322 4.84737 23.3081
rtibia 27.1381
rfoot -186.812 -179.36
rtoes 14.0735
lfemur -76.7649 11.9821 -3.80417
ltibia 39.1981
lfoot -10.634 9.39929
ltoes -17.7045
118
root -1.88894 16.8103 -16.8972 123.677 7.96279 -187.977
lowerback 47.0343 3.43051 -9.25387
upperback 16.9492 11.5581 -10.5824
thorax 0.706956 11.2167 -10.8728
lowerneck 0.942422 -8.1414 -18.2891
upperneck -0.0611105 -12.0942 24.1144
head 2.53581 -6.32758 10.1868
rclavicle 8.98507e-014 -1.17681e-013
rhumerus -25.7245 30.284 -82.4502
rradius 118.134
rwrist 10.8233
rhand -16.8324 13.8606
rfingers 7.12502
rthumb 9.39704 -15.9099
lclavicle 8.98507e-014 -1.17681e-013
lhumerus 20.7679 -41.2421 69.2505
lradius 115.571
lwrist 29.2285
lhand -10.6199 -12.2998
lfingers 7.12502
lthumb 15.3867 17.1077
rfemur 43.0844 4.65539 23.3167
rtibia 27.8551
rfoot -187.364 -179.395
rtoes 14.9419
lfemur -76.9818 13.1778 -4.89137
ltibia 41.521
lfoot -8.08964 8.42054
ltoes -19.2304
119
root -1.9024 16.7914 -16.9574 123.778 8.42005 -187.909
lowerback 46.6017 3.38461 -9.19544
upperback 17.0012 11.4303 -10.6061
thorax 0.811946 11.0894 -10.8289
lowerneck 1.2462 -7.97852 -18.2947
upperneck -0.303718 -11.8909 24.2169
head 2.3768 -6.2562 10.2628
rclavicle 4.92986e-014 -2.19458e-013
rhumerus -28.1299 29.8406 -83.2348
rradius 117.408
rwrist 12.318
rhand -16.9473 14.2662
rfingers 7.12502
rthumb 9.28616 -15.5093
lclavicle 4.92986e-014 -2.19458e-013
lhumerus 20.6517 -41.0138 69.216
lradius 115.271
lwrist 29.922
lhand -10.4632 -12.3098
lfingers 7.12502
lthumb 15.5376 17.086
rfemur 42.7361 4.47696 23.3172
rtibia 28.6195
rfoot -187.924 -179.427
rtoes 15.5401
lfemur -77.1759 14.2381 -5.65561
ltibia 44.3082
lfoot -5.91537 7.38003
ltoes -24.9709
120
root -1.91711 16.7707 -17.0178 123.936 8.84172 -187.811
lowerback 45.2804 3.12888 -8.83314
upperback 17.8717 11.3031 -10.6161
thorax 1.01198 10.9247 -10.8837
lowerneck 1.43955 -7.83316 -18.3411
upperneck -0.49336 -11.702 24.3065
head 2.25676 -6.1836 10.3335
rclavicle -1.82882e-014 -1.59028e-013
rhumerus -30.6726 29.4645 -84.0977
rradius 116.758
rwrist 13.4449
rhand -17.2168 14.7431
rfingers 7.12502
rthumb 9.02612 -15.0438
lclavicle -1.82882e-014 -1.59028e-013
lhumerus 20.4507 -40.7163 69.2531
lradius 114.964
lwrist 30.593
lhand -10.1701 -12.4871
lfingers 7.12502
lthumb 15.8198 16.8866
rfemur 42.3215 4.30466 23.3362
rtibia 29.4422
rfoot -188.523 -179.449
rtoes 16.0197
lfemur -77.2945 15.2281 -6.3011
ltibia 47.4114
lfoot -4.07829 5.96021
ltoes -32.4491
121
root -1.93363 16.7493 -17.0773 124.162 9.22031 -187.712
lowerback 44.809 3.08622 -8.83451
upperback 17.8779 11.1158 -10.6007
thorax 1.09359 10.7417 -10.7469
lowerneck 1.53152 -7.70297 -18.3408
upperneck -0.640617 -11.5235 24.357
head 2.16272 -6.10885 10.375
rclavicle -6.04305e-014 5.08889e-014
rhumerus -33.2772 29.1048 -85.1005
rradius 116.102
rwrist 14.0779
rhand -17.61 15.1813
rfingers 7.12502
rthumb 8.64675 -14.6216
lclavicle -6.04305e-014 5.08889e-014
lhumerus 20.2005 -40.4155 69.3047
lradius 114.663
lwrist 31.2602
lhand -9.74371 -12.804
lfingers 7.12502
lthumb 16.2304 16.5366
rfemur 41.8383 4.13493 23.3092
rtibia 30.262
rfoot -189.096 -179.407
rtoes 16.2117
lfemur -77.3934 16.1677 -6.84103
ltibia 50.8402
lfoot -2.04527 4.35901
ltoes -37.4441
